<?xml version="1.0" encoding="UTF-8"?>
<svg xmlns="http://www.w3.org/2000/svg" xmlns:xlink="http://www.w3.org/1999/xlink" width="239px" height="67px" viewBox="0 0 239 67" version="1.1">
<g id="surface1">
<path style=" stroke:none;fill-rule:nonzero;fill:rgb(99.607843%,80.392157%,74.901961%);fill-opacity:1;" d="M 6.542969 40.121094 C 7.109375 40.121094 7.679688 40.121094 8.261719 40.121094 C 9.179688 40.121094 9.179688 40.121094 10.117188 40.121094 C 10.753906 40.121094 11.390625 40.121094 12.027344 40.121094 C 13.363281 40.121094 14.699219 40.121094 16.035156 40.121094 C 17.738281 40.125 19.441406 40.125 21.144531 40.121094 C 22.460938 40.121094 23.777344 40.121094 25.09375 40.121094 C 26.027344 40.121094 26.957031 40.121094 27.886719 40.121094 C 32.226562 40.128906 35.617188 40.261719 38.925781 41.105469 C 40.328125 41.566406 41.144531 42.109375 42.011719 42.660156 C 46.796875 42.601562 51.554688 42.503906 56.320312 42.375 C 56.84375 42.359375 57.367188 42.34375 57.90625 42.328125 C 60.070312 42.269531 62.234375 42.210938 64.398438 42.148438 C 86.054688 41.523438 86.054688 41.523438 94.292969 42.265625 C 94.871094 42.320312 95.449219 42.371094 96.046875 42.421875 C 103.214844 43.097656 109.535156 44.253906 115.96875 45.34375 C 119.507812 45.941406 123.058594 46.53125 126.707031 47.078125 C 127.214844 47.152344 127.214844 47.152344 127.734375 47.234375 C 132.394531 47.917969 137.105469 48.171875 142.351562 48.179688 C 143.0625 48.183594 143.773438 48.183594 144.484375 48.1875 C 145.585938 48.191406 146.6875 48.195312 147.789062 48.199219 C 153.515625 48.210938 158.648438 48.292969 163.011719 49.464844 C 166.433594 50.535156 167.695312 51.507812 167.660156 52.9375 C 167.578125 53.257812 167.578125 53.257812 167.113281 53.652344 C 180.65625 52.265625 193.828125 50.609375 206.625 48.75 C 207.144531 48.675781 207.144531 48.675781 207.675781 48.597656 C 209.394531 48.347656 211.109375 48.097656 212.824219 47.84375 C 213.453125 47.75 214.085938 47.660156 214.714844 47.566406 C 215 47.523438 215.28125 47.480469 215.574219 47.4375 C 219.855469 46.8125 224.410156 46.632812 229.140625 46.933594 C 232.546875 47.273438 234.699219 47.839844 236.636719 48.679688 C 237.980469 49.738281 237.664062 50.984375 235.996094 51.992188 C 231.359375 54.242188 223.167969 55.679688 215.632812 57.085938 C 215.191406 57.167969 215.191406 57.167969 214.746094 57.253906 C 210.457031 58.050781 206.09375 58.808594 201.65625 59.539062 C 201.03125 59.644531 201.03125 59.644531 200.390625 59.75 C 190.257812 61.417969 179.820312 62.976562 168.980469 64.25 C 168.675781 64.289062 168.371094 64.324219 168.058594 64.363281 C 160.164062 65.273438 150.84375 65.507812 142.371094 65.558594 C 142.023438 65.5625 141.675781 65.566406 141.3125 65.570312 C 121.730469 65.703125 102.570312 64.609375 83.441406 63.578125 C 63.089844 62.472656 63.089844 62.472656 42.476562 61.894531 C 42.320312 61.988281 42.160156 62.082031 41.996094 62.179688 C 40.203125 63.171875 38.285156 63.90625 34.71875 64.433594 C 32.523438 64.59375 30.394531 64.660156 28.128906 64.664062 C 27.613281 64.667969 27.097656 64.667969 26.566406 64.667969 C 26.015625 64.671875 25.464844 64.671875 24.898438 64.671875 C 24.328125 64.671875 23.757812 64.671875 23.167969 64.671875 C 21.964844 64.675781 20.761719 64.675781 19.558594 64.675781 C 17.714844 64.675781 15.871094 64.679688 14.027344 64.683594 C 12.859375 64.6875 11.6875 64.6875 10.515625 64.6875 C 9.964844 64.6875 9.414062 64.691406 8.847656 64.691406 C 8.332031 64.691406 7.816406 64.691406 7.289062 64.691406 C 6.613281 64.691406 6.613281 64.691406 5.921875 64.691406 C 4.292969 64.628906 3.035156 64.449219 1.867188 64.121094 C 1.816406 63.816406 1.796875 63.515625 1.796875 63.214844 C 1.796875 63.117188 1.796875 63.023438 1.792969 62.921875 C 1.789062 62.597656 1.785156 62.273438 1.785156 61.949219 C 1.78125 61.71875 1.777344 61.488281 1.773438 61.257812 C 1.765625 60.625 1.761719 59.996094 1.757812 59.363281 C 1.757812 58.972656 1.753906 58.578125 1.75 58.183594 C 1.742188 56.953125 1.734375 55.722656 1.730469 54.492188 C 1.726562 53.070312 1.714844 51.648438 1.695312 50.226562 C 1.679688 49.128906 1.675781 48.03125 1.671875 46.933594 C 1.671875 46.277344 1.667969 45.621094 1.65625 44.964844 C 1.644531 44.347656 1.644531 43.730469 1.648438 43.113281 C 1.648438 42.886719 1.644531 42.660156 1.636719 42.433594 C 1.628906 42.125 1.632812 41.816406 1.640625 41.507812 C 1.632812 41.417969 1.628906 41.324219 1.625 41.234375 C 1.644531 40.820312 1.691406 40.617188 2.734375 40.3125 C 4.058594 40.128906 5.0625 40.125 6.542969 40.121094 Z M 6.542969 40.121094 "/>
<path style=" stroke:none;fill-rule:nonzero;fill:rgb(0.392157%,0.392157%,0.392157%);fill-opacity:1;" d="M 170.90625 1.617188 C 171.480469 1.660156 172.058594 1.703125 172.652344 1.746094 C 173.296875 1.792969 173.9375 1.839844 174.582031 1.890625 C 175.269531 1.941406 175.953125 1.992188 176.640625 2.039062 C 178.246094 2.160156 179.851562 2.277344 181.457031 2.398438 C 183.628906 2.5625 185.804688 2.722656 187.976562 2.882812 C 190.949219 3.101562 193.921875 3.324219 196.890625 3.546875 C 198.5625 3.671875 200.234375 3.792969 201.90625 3.917969 C 203.507812 4.035156 205.109375 4.15625 206.710938 4.277344 C 207.589844 4.34375 208.472656 4.410156 209.355469 4.472656 C 215.90625 4.972656 215.90625 4.972656 217.730469 5.59375 C 218.347656 6.285156 218.316406 6.757812 217.175781 7.386719 C 216.125 7.722656 216.125 7.722656 214.257812 7.851562 C 214.257812 8.757812 214.257812 9.664062 214.257812 10.597656 C 215.03125 10.6875 215.800781 10.773438 216.59375 10.859375 C 218.273438 11.367188 219.269531 11.988281 219.46875 12.675781 C 219.347656 13.128906 218.777344 13.539062 218.261719 13.96875 C 217.902344 14.367188 218.226562 14.566406 218.929688 14.917969 C 219.503906 15.628906 219.496094 16.34375 219.511719 17.070312 C 219.527344 17.25 219.527344 17.25 219.539062 17.433594 C 219.554688 18.183594 219.285156 18.707031 217.992188 19.367188 C 215.402344 20.074219 213.023438 20.054688 209.550781 20.039062 C 207.15625 20.007812 205.867188 19.878906 204.078125 19.433594 C 202.023438 18.773438 202.503906 18.097656 202.503906 17.253906 C 202.503906 16.992188 202.492188 16.726562 202.484375 16.464844 C 202.484375 16.296875 202.484375 16.132812 202.480469 15.960938 C 202.480469 15.808594 202.476562 15.652344 202.476562 15.496094 C 202.589844 15.046875 202.589844 15.046875 203.101562 14.558594 C 203.652344 14 203.050781 13.847656 202.125 13.347656 C 201.625 12.507812 202.253906 11.816406 203.992188 11.121094 C 205.949219 10.597656 205.949219 10.597656 207.257812 10.597656 C 207.257812 9.910156 207.257812 9.21875 207.257812 8.507812 C 203.328125 8.765625 203.328125 8.765625 199.320312 9.03125 C 199.332031 9.28125 199.332031 9.28125 199.34375 9.539062 C 199.371094 10.160156 199.386719 10.78125 199.398438 11.40625 C 199.40625 11.675781 199.414062 11.941406 199.429688 12.210938 C 199.445312 12.601562 199.453125 12.988281 199.460938 13.375 C 199.464844 13.496094 199.472656 13.613281 199.480469 13.738281 C 199.480469 14.574219 199.480469 14.574219 198.671875 15 C 197.921875 15.179688 197.921875 15.179688 196.988281 15.179688 C 197.066406 15.300781 197.140625 15.421875 197.222656 15.546875 C 198.34375 17.863281 196.265625 20.199219 191.300781 22.074219 C 188.921875 22.921875 186.570312 23.574219 183.453125 24.210938 C 183.710938 24.234375 183.96875 24.261719 184.234375 24.289062 C 196.214844 25.515625 206.144531 27.039062 215.308594 29.566406 C 215.617188 29.648438 215.929688 29.734375 216.246094 29.820312 C 217.171875 30.082031 218.050781 30.347656 218.929688 30.621094 C 219.214844 30.707031 219.503906 30.792969 219.800781 30.882812 C 222.816406 31.902344 222.652344 32.929688 222.578125 34.1875 C 222.578125 34.402344 222.578125 34.621094 222.578125 34.835938 C 222.578125 35.289062 222.566406 35.742188 222.542969 36.191406 C 222.519531 36.773438 222.515625 37.351562 222.519531 37.929688 C 222.519531 38.375 222.511719 38.824219 222.5 39.269531 C 222.496094 39.484375 222.492188 39.699219 222.492188 39.910156 C 222.492188 40.210938 222.476562 40.507812 222.460938 40.804688 C 222.449219 41.058594 222.449219 41.058594 222.441406 41.316406 C 222.195312 41.742188 222.195312 41.742188 221.519531 42.027344 C 219.730469 42.386719 218.121094 42.339844 215.96875 42.335938 C 215.300781 42.335938 215.300781 42.335938 214.617188 42.335938 C 213.117188 42.339844 211.617188 42.335938 210.117188 42.335938 C 209.046875 42.335938 207.972656 42.335938 206.898438 42.339844 C 203.980469 42.339844 201.0625 42.339844 198.144531 42.335938 C 195.09375 42.335938 192.042969 42.335938 188.992188 42.339844 C 183.539062 42.339844 178.089844 42.339844 172.636719 42.335938 C 167.691406 42.332031 162.75 42.332031 157.804688 42.335938 C 152.0625 42.339844 146.324219 42.339844 140.585938 42.339844 C 137.546875 42.335938 134.507812 42.335938 131.46875 42.339844 C 128.609375 42.339844 125.753906 42.339844 122.898438 42.335938 C 121.847656 42.335938 120.796875 42.335938 119.746094 42.335938 C 118.316406 42.339844 116.886719 42.335938 115.457031 42.335938 C 114.828125 42.335938 114.828125 42.335938 114.1875 42.335938 C 111.398438 42.328125 111.398438 42.328125 109.90625 42.027344 C 108.921875 41.613281 108.976562 41.289062 108.953125 40.792969 C 108.945312 40.699219 108.9375 40.605469 108.929688 40.507812 C 108.910156 40.195312 108.90625 39.882812 108.902344 39.566406 C 108.894531 39.347656 108.886719 39.128906 108.878906 38.910156 C 108.863281 38.453125 108.859375 37.992188 108.859375 37.535156 C 108.855469 36.949219 108.828125 36.363281 108.789062 35.78125 C 108.765625 35.328125 108.757812 34.875 108.757812 34.421875 C 108.757812 34.207031 108.746094 33.992188 108.730469 33.777344 C 108.648438 32.683594 108.703125 31.851562 111.277344 30.960938 C 111.980469 30.757812 112.699219 30.554688 113.429688 30.359375 C 113.882812 30.214844 114.328125 30.070312 114.769531 29.921875 C 123.855469 27.097656 135.242188 25.402344 147.976562 24.210938 C 147.71875 24.15625 147.464844 24.105469 147.203125 24.054688 C 140.292969 22.617188 135.476562 20.652344 134.089844 18.242188 C 133.800781 17.472656 133.871094 16.699219 133.957031 15.929688 C 133.96875 15.804688 133.984375 15.679688 133.996094 15.554688 C 134.011719 15.445312 134.03125 15.332031 134.046875 15.21875 C 134.042969 14.917969 134.042969 14.917969 133.507812 14.671875 C 132.996094 14.371094 132.910156 14.175781 132.886719 13.84375 C 132.878906 13.734375 132.871094 13.628906 132.859375 13.515625 C 132.855469 13.402344 132.847656 13.289062 132.84375 13.167969 C 132.835938 13.050781 132.824219 12.933594 132.816406 12.8125 C 132.789062 12.433594 132.765625 12.054688 132.746094 11.679688 C 132.726562 11.421875 132.710938 11.167969 132.691406 10.910156 C 132.644531 10.285156 132.605469 9.65625 132.570312 9.03125 C 132.160156 9 131.75 8.972656 131.328125 8.941406 C 129.796875 8.832031 128.269531 8.722656 126.742188 8.609375 C 126.082031 8.5625 125.421875 8.515625 124.761719 8.46875 C 123.808594 8.402344 122.855469 8.332031 121.902344 8.261719 C 121.332031 8.222656 120.757812 8.179688 120.167969 8.136719 C 117.765625 7.90625 116.175781 7.644531 114.832031 7.035156 C 114.285156 6.457031 114.269531 6.027344 115.296875 5.496094 C 116.96875 5.066406 118.378906 4.871094 120.550781 4.707031 C 120.847656 4.6875 121.140625 4.664062 121.441406 4.640625 C 122.4375 4.5625 123.433594 4.492188 124.429688 4.417969 C 125.144531 4.363281 125.863281 4.308594 126.578125 4.253906 C 128.6875 4.09375 130.800781 3.933594 132.917969 3.777344 C 134.898438 3.628906 136.878906 3.480469 138.859375 3.332031 C 144.796875 2.882812 150.738281 2.4375 156.679688 1.996094 C 157.230469 1.953125 157.777344 1.914062 158.339844 1.871094 C 158.847656 1.832031 159.355469 1.796875 159.875 1.757812 C 160.316406 1.722656 160.757812 1.691406 161.214844 1.65625 C 164.597656 1.417969 167.496094 1.367188 170.90625 1.617188 Z M 170.90625 1.617188 "/>
<path style=" stroke:none;fill-rule:nonzero;fill:rgb(0.392157%,0.392157%,0.392157%);fill-opacity:1;" d="M 6.542969 40.121094 C 7.109375 40.121094 7.679688 40.121094 8.261719 40.121094 C 9.179688 40.121094 9.179688 40.121094 10.117188 40.121094 C 10.753906 40.121094 11.390625 40.121094 12.027344 40.121094 C 13.363281 40.121094 14.699219 40.121094 16.035156 40.121094 C 17.738281 40.125 19.441406 40.125 21.144531 40.121094 C 22.460938 40.121094 23.777344 40.121094 25.09375 40.121094 C 26.027344 40.121094 26.957031 40.121094 27.886719 40.121094 C 32.226562 40.128906 35.617188 40.261719 38.925781 41.105469 C 40.328125 41.566406 41.144531 42.109375 42.011719 42.660156 C 46.796875 42.601562 51.554688 42.503906 56.320312 42.375 C 56.84375 42.359375 57.367188 42.34375 57.90625 42.328125 C 60.070312 42.269531 62.234375 42.210938 64.398438 42.148438 C 86.054688 41.523438 86.054688 41.523438 94.292969 42.265625 C 94.871094 42.320312 95.449219 42.371094 96.046875 42.421875 C 103.214844 43.097656 109.535156 44.253906 115.96875 45.34375 C 119.507812 45.941406 123.058594 46.53125 126.707031 47.078125 C 127.214844 47.152344 127.214844 47.152344 127.734375 47.234375 C 132.394531 47.917969 137.105469 48.171875 142.351562 48.179688 C 143.0625 48.183594 143.773438 48.183594 144.484375 48.1875 C 145.585938 48.191406 146.6875 48.195312 147.789062 48.199219 C 153.515625 48.210938 158.648438 48.292969 163.011719 49.464844 C 166.433594 50.535156 167.695312 51.507812 167.660156 52.9375 C 167.578125 53.257812 167.578125 53.257812 167.113281 53.652344 C 180.65625 52.265625 193.828125 50.609375 206.625 48.75 C 207.144531 48.675781 207.144531 48.675781 207.675781 48.597656 C 209.394531 48.347656 211.109375 48.097656 212.824219 47.84375 C 213.453125 47.75 214.085938 47.660156 214.714844 47.566406 C 215 47.523438 215.28125 47.480469 215.574219 47.4375 C 219.855469 46.8125 224.410156 46.632812 229.140625 46.933594 C 232.546875 47.273438 234.699219 47.839844 236.636719 48.679688 C 237.980469 49.738281 237.664062 50.984375 235.996094 51.992188 C 231.359375 54.242188 223.167969 55.679688 215.632812 57.085938 C 215.191406 57.167969 215.191406 57.167969 214.746094 57.253906 C 210.457031 58.050781 206.09375 58.808594 201.65625 59.539062 C 201.03125 59.644531 201.03125 59.644531 200.390625 59.75 C 190.257812 61.417969 179.820312 62.976562 168.980469 64.25 C 168.675781 64.289062 168.371094 64.324219 168.058594 64.363281 C 160.164062 65.273438 150.84375 65.507812 142.371094 65.558594 C 142.023438 65.5625 141.675781 65.566406 141.3125 65.570312 C 121.730469 65.703125 102.570312 64.609375 83.441406 63.578125 C 63.089844 62.472656 63.089844 62.472656 42.476562 61.894531 C 42.320312 61.988281 42.160156 62.082031 41.996094 62.179688 C 40.203125 63.171875 38.285156 63.90625 34.71875 64.433594 C 32.523438 64.59375 30.394531 64.660156 28.128906 64.664062 C 27.613281 64.667969 27.097656 64.667969 26.566406 64.667969 C 26.015625 64.671875 25.464844 64.671875 24.898438 64.671875 C 24.328125 64.671875 23.757812 64.671875 23.167969 64.671875 C 21.964844 64.675781 20.761719 64.675781 19.558594 64.675781 C 17.714844 64.675781 15.871094 64.679688 14.027344 64.683594 C 12.859375 64.6875 11.6875 64.6875 10.515625 64.6875 C 9.964844 64.6875 9.414062 64.691406 8.847656 64.691406 C 8.332031 64.691406 7.816406 64.691406 7.289062 64.691406 C 6.613281 64.691406 6.613281 64.691406 5.921875 64.691406 C 4.292969 64.628906 3.035156 64.449219 1.867188 64.121094 C 1.816406 63.816406 1.796875 63.515625 1.796875 63.214844 C 1.796875 63.117188 1.796875 63.023438 1.792969 62.921875 C 1.789062 62.597656 1.785156 62.273438 1.785156 61.949219 C 1.78125 61.71875 1.777344 61.488281 1.773438 61.257812 C 1.765625 60.625 1.761719 59.996094 1.757812 59.363281 C 1.757812 58.972656 1.753906 58.578125 1.75 58.183594 C 1.742188 56.953125 1.734375 55.722656 1.730469 54.492188 C 1.726562 53.070312 1.714844 51.648438 1.695312 50.226562 C 1.679688 49.128906 1.675781 48.03125 1.671875 46.933594 C 1.671875 46.277344 1.667969 45.621094 1.65625 44.964844 C 1.644531 44.347656 1.644531 43.730469 1.648438 43.113281 C 1.648438 42.886719 1.644531 42.660156 1.636719 42.433594 C 1.628906 42.125 1.632812 41.816406 1.640625 41.507812 C 1.632812 41.417969 1.628906 41.324219 1.625 41.234375 C 1.644531 40.820312 1.691406 40.617188 2.734375 40.3125 C 4.058594 40.128906 5.0625 40.125 6.542969 40.121094 Z M 63.316406 44.054688 C 62.015625 44.09375 60.714844 44.128906 59.414062 44.164062 C 57.835938 44.207031 56.253906 44.25 54.675781 44.292969 C 53.816406 44.320312 53.816406 44.320312 52.941406 44.34375 C 52.117188 44.367188 52.117188 44.367188 51.277344 44.390625 C 50.804688 44.402344 50.332031 44.417969 49.847656 44.429688 C 47.226562 44.523438 44.621094 44.640625 42.011719 44.753906 C 42.011719 49.761719 42.011719 54.773438 42.011719 59.933594 C 46.324219 60.0625 50.636719 60.191406 55.082031 60.324219 C 58.863281 60.476562 62.632812 60.636719 66.402344 60.808594 C 67.144531 60.84375 67.144531 60.84375 67.902344 60.875 C 75.519531 61.222656 83.089844 61.617188 90.648438 62.054688 C 97.441406 62.445312 104.242188 62.785156 111.097656 63.074219 C 111.675781 63.101562 112.25 63.125 112.84375 63.152344 C 153.570312 64.933594 185.34375 60.90625 217.992188 54.304688 C 225.886719 52.765625 225.886719 52.765625 230.597656 50.511719 C 230.804688 49.996094 230.761719 49.628906 229.664062 49.203125 C 226.960938 48.667969 224.46875 48.667969 221.261719 48.808594 C 219.019531 49.050781 216.96875 49.359375 214.875 49.6875 C 212.878906 50 210.855469 50.296875 208.832031 50.59375 C 208.382812 50.660156 207.933594 50.726562 207.46875 50.792969 C 191.234375 53.160156 173.738281 55.449219 155.910156 56.660156 C 155.453125 56.695312 155.453125 56.695312 154.984375 56.726562 C 137.515625 57.921875 115.257812 56.769531 99.679688 54.316406 C 98.960938 54.175781 98.960938 54.175781 98.492188 53.914062 C 98.347656 53.53125 98.347656 53.53125 98.492188 53.128906 C 99.253906 52.875 99.253906 52.875 100.359375 52.734375 C 102.597656 52.789062 104.183594 52.992188 106.136719 53.292969 C 118.898438 55.15625 138.21875 56.128906 152.246094 55.089844 C 155.398438 54.785156 158.316406 54.484375 160.109375 53.652344 C 160.960938 52.9375 161.144531 52.175781 160.035156 51.476562 C 158.746094 50.914062 157.617188 50.550781 155.441406 50.25 C 153.804688 50.191406 153.804688 50.191406 152.007812 50.195312 C 151.507812 50.195312 151.507812 50.195312 151.003906 50.191406 C 149.945312 50.1875 148.886719 50.1875 147.828125 50.183594 C 139.113281 50.171875 130.859375 49.898438 123.058594 48.730469 C 122.648438 48.667969 122.238281 48.605469 121.816406 48.542969 C 117.808594 47.941406 113.941406 47.277344 110.066406 46.609375 C 103.914062 45.554688 97.984375 44.5625 91.023438 43.96875 C 90.65625 43.9375 90.289062 43.90625 89.90625 43.871094 C 81.488281 43.273438 71.820312 43.8125 63.316406 44.054688 Z M 63.316406 44.054688 "/>
<path style=" stroke:none;fill-rule:nonzero;fill:rgb(0.392157%,0%,0%);fill-opacity:1;" d="M 67.714844 9.351562 C 68.304688 9.351562 68.894531 9.351562 69.503906 9.351562 C 70.75 9.351562 71.996094 9.351562 73.242188 9.355469 C 74.832031 9.355469 76.425781 9.355469 78.015625 9.351562 C 79.542969 9.347656 81.066406 9.351562 82.59375 9.351562 C 83.164062 9.351562 83.730469 9.351562 84.316406 9.347656 C 87.304688 9.359375 89.242188 9.371094 91.492188 9.945312 C 93.816406 10.648438 93.839844 11.101562 93.828125 12.039062 C 94.359375 12.035156 94.890625 12.035156 95.4375 12.03125 C 97.425781 12.027344 99.410156 12.019531 101.398438 12.015625 C 102.257812 12.015625 103.113281 12.011719 103.972656 12.007812 C 105.210938 12.003906 106.445312 12.003906 107.683594 12 C 108.0625 12 108.441406 11.996094 108.832031 11.996094 C 111.566406 11.996094 114.394531 12.074219 116.496094 12.621094 C 118.777344 13.371094 118.804688 13.9375 118.65625 14.898438 C 118.535156 15.277344 118.21875 15.636719 117.902344 16.007812 C 116.761719 17.386719 116.507812 18.75 116.464844 20.160156 C 116.460938 20.304688 116.460938 20.304688 116.453125 20.457031 C 116.4375 21.070312 116.433594 21.683594 116.4375 22.292969 C 116.4375 23.121094 116.429688 23.945312 116.410156 24.773438 C 116.40625 25.058594 116.410156 25.34375 116.414062 25.628906 C 116.40625 26.742188 116.335938 27.890625 113.546875 28.773438 C 113.339844 28.84375 113.128906 28.914062 112.914062 28.984375 C 109.691406 29.703125 106.226562 29.632812 102.28125 29.628906 C 101.625 29.628906 100.96875 29.628906 100.3125 29.628906 C 98.535156 29.632812 96.757812 29.632812 94.980469 29.632812 C 93.496094 29.628906 92.011719 29.632812 90.523438 29.632812 C 87.015625 29.632812 83.511719 29.632812 80.003906 29.632812 C 76.390625 29.632812 72.78125 29.632812 69.167969 29.636719 C 66.0625 29.640625 62.953125 29.640625 59.847656 29.640625 C 57.996094 29.640625 56.140625 29.640625 54.289062 29.640625 C 52.546875 29.644531 50.800781 29.644531 49.058594 29.640625 C 48.121094 29.640625 47.179688 29.640625 46.238281 29.644531 C 42.480469 29.636719 39.636719 29.558594 36.847656 28.785156 C 36.636719 28.695312 36.425781 28.609375 36.207031 28.519531 C 35.875 28.386719 35.875 28.386719 35.535156 28.253906 C 34.460938 27.742188 34.480469 27.308594 34.46875 26.730469 C 34.464844 26.59375 34.464844 26.59375 34.460938 26.457031 C 34.457031 26.265625 34.453125 26.070312 34.449219 25.875 C 34.445312 25.570312 34.433594 25.261719 34.425781 24.953125 C 34.398438 24.074219 34.371094 23.199219 34.355469 22.320312 C 34.347656 21.785156 34.328125 21.25 34.308594 20.710938 C 34.300781 20.507812 34.296875 20.304688 34.296875 20.101562 C 34.285156 18.847656 33.847656 17.703125 32.675781 16.488281 C 30.761719 14.046875 30.761719 14.046875 32.5 13.09375 C 34.242188 12.464844 35.949219 12.148438 38.742188 12.039062 C 40.148438 12.023438 41.550781 12.023438 42.953125 12.027344 C 43.554688 12.027344 43.554688 12.027344 44.167969 12.027344 C 45.445312 12.027344 46.71875 12.027344 47.992188 12.03125 C 48.859375 12.03125 49.726562 12.03125 50.59375 12.03125 C 52.710938 12.035156 54.832031 12.035156 56.949219 12.039062 C 56.941406 11.949219 56.929688 11.859375 56.921875 11.769531 C 56.914062 11.59375 56.914062 11.59375 56.902344 11.414062 C 56.894531 11.296875 56.882812 11.179688 56.875 11.058594 C 57.019531 10.417969 58.285156 10.082031 59.90625 9.667969 C 62.226562 9.25 65.058594 9.347656 67.714844 9.351562 Z M 63.953125 11.382812 C 63.953125 11.601562 63.953125 11.816406 63.953125 12.039062 C 71.5 12.039062 79.046875 12.039062 86.824219 12.039062 C 86.824219 11.824219 86.824219 11.605469 86.824219 11.382812 C 79.277344 11.382812 71.726562 11.382812 63.953125 11.382812 Z M 63.953125 11.382812 "/>
<path style=" stroke:none;fill-rule:nonzero;fill:rgb(0%,38.039216%,84.705882%);fill-opacity:1;" d="M 138.171875 27.480469 C 138.765625 27.707031 138.765625 27.707031 139.445312 28.027344 C 139.832031 28.207031 139.832031 28.207031 140.222656 28.390625 C 140.5 28.523438 140.773438 28.652344 141.058594 28.789062 C 141.652344 29.0625 142.242188 29.335938 142.832031 29.613281 C 143.777344 30.054688 144.71875 30.496094 145.648438 30.9375 C 146.558594 31.375 147.484375 31.808594 148.414062 32.242188 C 148.832031 32.445312 148.832031 32.445312 149.261719 32.65625 C 150.816406 33.402344 150.816406 33.402344 153.445312 33.804688 C 155.039062 33.761719 155.535156 33.738281 156.640625 33.425781 C 156.945312 33.34375 157.246094 33.261719 157.558594 33.175781 C 157.941406 33.066406 158.320312 32.957031 158.710938 32.84375 C 159.273438 32.6875 159.835938 32.53125 160.402344 32.375 C 162.027344 31.925781 163.636719 31.46875 165.246094 31.015625 C 166.914062 31.210938 167.898438 31.476562 169.121094 31.847656 C 169.5 31.960938 169.878906 32.074219 170.269531 32.1875 C 171.0625 32.425781 171.851562 32.664062 172.632812 32.902344 C 174.800781 33.554688 174.800781 33.554688 177.695312 33.855469 C 180.117188 33.507812 181.136719 32.964844 182.515625 32.320312 C 182.816406 32.1875 183.113281 32.054688 183.421875 31.917969 C 184.378906 31.492188 185.316406 31.0625 186.25 30.628906 C 188.550781 29.574219 190.871094 28.523438 193.253906 27.480469 C 195.515625 27.679688 197.367188 27.941406 199.320312 28.316406 C 199.625 28.371094 199.929688 28.429688 200.238281 28.488281 C 206.140625 29.628906 211.351562 30.972656 215.660156 32.585938 C 215.660156 35.175781 215.660156 37.765625 215.660156 40.4375 C 182.695312 40.4375 149.730469 40.4375 115.765625 40.4375 C 115.765625 32.417969 115.765625 32.417969 122.097656 30.5 C 133.121094 27.480469 133.121094 27.480469 138.171875 27.480469 Z M 138.171875 27.480469 "/>
<path style=" stroke:none;fill-rule:nonzero;fill:rgb(30.196078%,69.019608%,98.039216%);fill-opacity:1;" d="M 8.402344 42.007812 C 31.273438 42.007812 31.273438 42.007812 34.078125 42.53125 C 35.398438 43.007812 35.652344 43.355469 35.65625 43.953125 C 35.660156 44.183594 35.660156 44.183594 35.667969 44.421875 C 35.664062 44.589844 35.660156 44.757812 35.65625 44.929688 C 35.660156 45.109375 35.664062 45.289062 35.664062 45.46875 C 35.671875 45.953125 35.667969 46.441406 35.664062 46.929688 C 35.660156 47.4375 35.664062 47.945312 35.667969 48.457031 C 35.667969 49.3125 35.664062 50.167969 35.660156 51.023438 C 35.652344 52.011719 35.652344 53.003906 35.660156 53.992188 C 35.667969 54.839844 35.667969 55.691406 35.664062 56.539062 C 35.664062 57.046875 35.664062 57.554688 35.667969 58.0625 C 35.671875 58.539062 35.667969 59.015625 35.660156 59.492188 C 35.65625 59.75 35.660156 60.007812 35.667969 60.265625 C 35.664062 60.421875 35.660156 60.574219 35.65625 60.734375 C 35.652344 60.867188 35.652344 61 35.652344 61.140625 C 35.371094 61.726562 34.285156 62.175781 32.675781 62.550781 C 25 63.269531 16.496094 62.679688 8.402344 62.679688 C 8.402344 55.859375 8.402344 49.035156 8.402344 42.007812 Z M 8.402344 42.007812 "/>
<path style=" stroke:none;fill-rule:nonzero;fill:rgb(99.607843%,80.392157%,74.901961%);fill-opacity:1;" d="M 41.078125 19.757812 C 52.398438 19.824219 52.398438 19.824219 63.953125 19.890625 C 64.257812 20.191406 64.566406 20.496094 64.882812 20.804688 C 67.398438 21.269531 70.910156 21.113281 73.824219 21.109375 C 74.886719 21.109375 75.949219 21.113281 77.015625 21.117188 C 77.699219 21.117188 78.378906 21.117188 79.0625 21.117188 C 79.984375 21.117188 79.984375 21.117188 80.929688 21.117188 C 82.796875 21.0625 83.875 20.972656 85.421875 20.675781 C 85.886719 20.417969 86.347656 20.15625 86.824219 19.890625 C 94.21875 19.847656 101.613281 19.804688 109.230469 19.757812 C 109.28125 20.722656 109.328125 21.683594 109.351562 22.648438 C 109.363281 23.097656 109.378906 23.542969 109.40625 23.992188 C 109.4375 24.507812 109.449219 25.019531 109.457031 25.535156 C 109.46875 25.695312 109.484375 25.855469 109.496094 26.023438 C 109.496094 26.171875 109.496094 26.320312 109.496094 26.476562 C 109.5 26.605469 109.503906 26.738281 109.511719 26.871094 C 109.117188 27.355469 108.351562 27.472656 106.898438 27.742188 C 105.625 27.808594 105.625 27.808594 104.222656 27.808594 C 103.6875 27.8125 103.152344 27.8125 102.601562 27.816406 C 101.730469 27.8125 101.730469 27.8125 100.839844 27.8125 C 99.917969 27.8125 99.917969 27.8125 98.976562 27.816406 C 97.289062 27.816406 95.601562 27.816406 93.917969 27.816406 C 92.507812 27.816406 91.101562 27.816406 89.691406 27.816406 C 86.371094 27.820312 83.046875 27.820312 79.726562 27.816406 C 76.300781 27.816406 72.871094 27.816406 69.445312 27.820312 C 66.503906 27.824219 63.558594 27.824219 60.617188 27.824219 C 58.859375 27.824219 57.101562 27.824219 55.34375 27.828125 C 53.386719 27.832031 51.425781 27.828125 49.46875 27.824219 C 48.886719 27.828125 48.304688 27.828125 47.707031 27.828125 C 43.8125 27.816406 43.8125 27.816406 41.882812 27.457031 C 40.976562 27.042969 40.792969 26.824219 40.8125 26.339844 C 40.8125 26.195312 40.8125 26.046875 40.8125 25.894531 C 40.824219 25.738281 40.835938 25.582031 40.851562 25.421875 C 40.851562 25.257812 40.855469 25.097656 40.859375 24.929688 C 40.871094 24.503906 40.890625 24.074219 40.917969 23.644531 C 40.941406 23.207031 40.953125 22.769531 40.964844 22.332031 C 40.988281 21.476562 41.035156 20.617188 41.078125 19.757812 Z M 41.078125 19.757812 "/>
<path style=" stroke:none;fill-rule:nonzero;fill:rgb(98.039216%,68.235294%,61.960784%);fill-opacity:1;" d="M 229.664062 49.464844 C 230.597656 49.726562 230.597656 49.726562 230.667969 49.972656 C 230.191406 51.367188 227.25 52.230469 223.59375 53.128906 C 207.429688 56.808594 188.035156 59.847656 168.980469 62.15625 C 168.652344 62.199219 168.324219 62.238281 167.984375 62.28125 C 149.648438 64.503906 127.496094 63.828125 108.296875 62.945312 C 107.710938 62.917969 107.121094 62.890625 106.515625 62.863281 C 101.527344 62.632812 96.566406 62.363281 91.605469 62.085938 C 82.746094 61.585938 73.863281 61.148438 64.941406 60.742188 C 64.390625 60.71875 63.835938 60.691406 63.269531 60.667969 C 56.195312 60.339844 49.160156 60.085938 42.011719 59.933594 C 42.011719 59.285156 42.011719 58.636719 42.011719 57.96875 C 49.433594 58.082031 56.730469 58.359375 64.066406 58.675781 C 64.523438 58.691406 64.976562 58.710938 65.441406 58.730469 C 70.859375 58.960938 76.238281 59.226562 81.605469 59.535156 C 85.714844 59.769531 89.839844 59.980469 93.960938 60.191406 C 95.429688 60.269531 96.894531 60.34375 98.359375 60.421875 C 104.453125 60.738281 110.550781 61.023438 116.699219 61.242188 C 117.078125 61.253906 117.457031 61.269531 117.847656 61.285156 C 123.824219 61.492188 129.753906 61.550781 135.773438 61.546875 C 137.207031 61.542969 138.636719 61.546875 140.070312 61.550781 C 171.546875 61.578125 205.710938 55.816406 228.613281 50.042969 C 229.3125 49.84375 229.3125 49.84375 229.664062 49.464844 Z M 229.664062 49.464844 "/>
<path style=" stroke:none;fill-rule:nonzero;fill:rgb(78.039216%,43.137255%,35.686275%);fill-opacity:1;" d="M 41.5625 13.984375 C 42.175781 13.984375 42.785156 13.984375 43.417969 13.984375 C 44.105469 13.984375 44.789062 13.984375 45.472656 13.984375 C 46.191406 13.984375 46.90625 13.984375 47.625 13.984375 C 49.578125 13.984375 51.527344 13.984375 53.480469 13.984375 C 55.519531 13.984375 57.558594 13.984375 59.59375 13.984375 C 63.019531 13.984375 66.441406 13.984375 69.867188 13.984375 C 73.828125 13.984375 77.792969 13.984375 81.757812 13.984375 C 85.15625 13.984375 88.550781 13.984375 91.949219 13.984375 C 93.980469 13.984375 96.011719 13.984375 98.042969 13.984375 C 99.953125 13.984375 101.863281 13.984375 103.773438 13.984375 C 104.476562 13.984375 105.175781 13.984375 105.878906 13.984375 C 106.835938 13.984375 107.792969 13.984375 108.746094 13.984375 C 109.28125 13.984375 109.820312 13.984375 110.371094 13.984375 C 111.566406 14 111.566406 14 112.03125 14.132812 C 111.90625 14.484375 111.75 14.832031 111.566406 15.179688 C 111.519531 15.273438 111.472656 15.367188 111.421875 15.464844 C 111.277344 15.753906 111.117188 16.039062 110.953125 16.324219 C 110.902344 16.421875 110.855469 16.519531 110.804688 16.617188 C 110.453125 17.214844 110.03125 17.554688 108.296875 17.925781 C 107.226562 18.078125 106.589844 18.078125 105.402344 18.085938 C 104.996094 18.089844 104.589844 18.089844 104.175781 18.09375 C 102.324219 18.101562 100.472656 18.109375 98.621094 18.113281 C 97.644531 18.113281 96.664062 18.117188 95.6875 18.125 C 94.28125 18.132812 92.875 18.136719 91.464844 18.140625 C 90.8125 18.144531 90.8125 18.144531 90.144531 18.152344 C 88.972656 18.148438 87.957031 18.140625 86.824219 18.058594 C 85.71875 17.675781 85.71875 17.675781 84.957031 17.273438 C 83.324219 16.921875 81.394531 16.96875 79.414062 16.96875 C 79.0625 16.96875 78.707031 16.964844 78.339844 16.964844 C 77.59375 16.964844 76.84375 16.964844 76.097656 16.964844 C 74.957031 16.960938 73.816406 16.957031 72.671875 16.953125 C 71.945312 16.953125 71.214844 16.953125 70.488281 16.953125 C 70.148438 16.949219 69.808594 16.949219 69.460938 16.945312 C 67.792969 16.949219 66.816406 17 65.378906 17.246094 C 64.394531 17.542969 64.222656 17.675781 63.953125 18.058594 C 61.003906 18.070312 58.054688 18.082031 55.105469 18.085938 C 54.101562 18.089844 53.097656 18.09375 52.097656 18.097656 C 50.652344 18.105469 49.210938 18.105469 47.769531 18.109375 C 47.320312 18.113281 46.875 18.113281 46.414062 18.117188 C 44.398438 18.117188 43.261719 18.113281 41.507812 17.8125 C 40.453125 17.484375 40.152344 17.261719 39.824219 16.832031 C 39.71875 16.695312 39.613281 16.558594 39.503906 16.417969 C 38.503906 14.875 38.503906 14.875 38.277344 14.132812 C 39.121094 13.894531 40.425781 13.984375 41.5625 13.984375 Z M 41.5625 13.984375 "/>
<path style=" stroke:none;fill-rule:nonzero;fill:rgb(99.215686%,80%,74.509804%);fill-opacity:1;" d="M 140.972656 15.964844 C 141.351562 16 141.351562 16 141.738281 16.039062 C 144.320312 16.285156 146.914062 16.5 149.550781 16.691406 C 149.910156 16.71875 150.273438 16.746094 150.644531 16.773438 C 162.984375 17.6875 176.449219 17.546875 188.359375 16.21875 C 189.519531 16.09375 189.519531 16.09375 190.453125 16.09375 C 190.664062 18.234375 189.089844 19.945312 184.003906 21.59375 C 179.363281 22.933594 173.460938 23.683594 166.832031 23.730469 C 158.828125 23.753906 153.316406 23.175781 147.390625 21.617188 C 142.617188 20.207031 140.734375 18.535156 140.878906 16.621094 C 140.902344 16.402344 140.9375 16.183594 140.972656 15.964844 Z M 140.972656 15.964844 "/>
<path style=" stroke:none;fill-rule:nonzero;fill:rgb(16.078431%,56.862745%,97.254902%);fill-opacity:1;" d="M 31.273438 42.136719 C 34.171875 42.460938 34.171875 42.460938 35.128906 42.910156 C 35.953125 43.554688 35.730469 44.265625 35.710938 44.945312 C 35.710938 45.125 35.714844 45.304688 35.71875 45.484375 C 35.726562 45.96875 35.71875 46.453125 35.710938 46.941406 C 35.707031 47.449219 35.707031 47.960938 35.710938 48.46875 C 35.710938 49.324219 35.707031 50.179688 35.695312 51.035156 C 35.683594 52.023438 35.679688 53.011719 35.6875 54 C 35.691406 54.949219 35.6875 55.902344 35.683594 56.851562 C 35.679688 57.257812 35.679688 57.660156 35.683594 58.066406 C 35.683594 58.542969 35.679688 59.019531 35.667969 59.496094 C 35.664062 59.753906 35.667969 60.011719 35.671875 60.269531 C 35.667969 60.421875 35.664062 60.578125 35.65625 60.734375 C 35.65625 60.867188 35.65625 61 35.652344 61.140625 C 35.367188 61.726562 34.285156 62.175781 32.675781 62.550781 C 31.308594 62.679688 30.441406 62.699219 29.015625 62.695312 C 28.328125 62.695312 28.328125 62.695312 27.628906 62.695312 C 27.136719 62.695312 26.644531 62.695312 26.136719 62.695312 C 25.375 62.695312 25.375 62.695312 24.601562 62.695312 C 22.984375 62.691406 21.367188 62.691406 19.75 62.691406 C 18.65625 62.6875 17.558594 62.6875 16.464844 62.6875 C 13.777344 62.6875 11.089844 62.683594 8.402344 62.679688 C 8.402344 62.335938 8.402344 61.992188 8.402344 61.632812 C 14.179688 61.570312 14.179688 61.570312 20.070312 61.503906 C 17.761719 61.179688 17.761719 61.179688 15.40625 60.851562 C 12.851562 60.035156 11.964844 59.488281 12.042969 58.410156 C 12.289062 57.605469 13.210938 57.09375 15.347656 56.546875 C 17.59375 56.042969 19.335938 55.808594 22.292969 55.835938 C 26.410156 55.996094 28.050781 56.414062 30.808594 57.316406 C 30.960938 52.308594 31.117188 47.296875 31.273438 42.136719 Z M 31.273438 42.136719 "/>
<path style=" stroke:none;fill-rule:nonzero;fill:rgb(0%,37.254902%,82.745098%);fill-opacity:1;" d="M 173.296875 3.746094 C 174.035156 3.800781 174.035156 3.800781 174.785156 3.851562 C 178.316406 4.109375 181.828125 4.390625 185.328125 4.675781 C 189.085938 4.984375 192.878906 5.246094 196.6875 5.496094 C 197.140625 5.527344 197.59375 5.558594 198.058594 5.589844 C 198.460938 5.613281 198.863281 5.640625 199.277344 5.667969 C 200.257812 5.757812 200.257812 5.757812 201.1875 6.019531 C 198.523438 5.964844 195.859375 5.90625 193.195312 5.847656 C 192.796875 5.839844 192.398438 5.832031 191.988281 5.820312 C 185.90625 5.6875 179.839844 5.535156 173.773438 5.355469 C 173.242188 5.339844 172.710938 5.324219 172.160156 5.304688 C 171.703125 5.292969 171.242188 5.277344 170.769531 5.265625 C 167.996094 5.175781 167.996094 5.175781 165.507812 5.445312 C 164.636719 5.753906 164.636719 5.753906 164.835938 6.167969 C 165.144531 6.554688 165.144531 6.554688 166.179688 6.804688 C 167.230469 6.875 167.230469 6.875 168.460938 6.90625 C 168.933594 6.921875 169.40625 6.9375 169.890625 6.953125 C 170.652344 6.976562 170.652344 6.976562 171.429688 7 C 171.949219 7.019531 172.46875 7.035156 173.003906 7.050781 C 176.949219 7.175781 180.898438 7.28125 184.855469 7.375 C 186.75 7.417969 188.59375 7.46875 190.453125 7.589844 C 189.179688 7.828125 188.417969 7.917969 186.980469 8.027344 C 186.359375 8.074219 186.359375 8.074219 185.726562 8.121094 C 185.285156 8.152344 184.839844 8.1875 184.382812 8.21875 C 183.929688 8.253906 183.476562 8.289062 183.007812 8.324219 C 181.601562 8.429688 180.191406 8.53125 178.78125 8.636719 C 177.921875 8.699219 177.058594 8.765625 176.199219 8.828125 C 174.105469 8.984375 172.011719 9.136719 169.914062 9.289062 C 169.609375 9.316406 169.300781 9.339844 168.988281 9.363281 C 165.21875 9.601562 161.738281 9.304688 158.128906 9.011719 C 157.328125 8.949219 157.328125 8.949219 156.515625 8.886719 C 152.78125 8.597656 149.058594 8.292969 145.335938 7.992188 C 142.542969 7.765625 139.734375 7.570312 136.902344 7.390625 C 133.085938 7.144531 129.328125 6.84375 125.570312 6.542969 C 125.570312 6.457031 125.570312 6.371094 125.570312 6.28125 C 126 6.25 126 6.25 126.441406 6.222656 C 131.945312 5.84375 137.421875 5.453125 142.859375 5.007812 C 146.5 4.710938 150.167969 4.453125 153.851562 4.203125 C 156.789062 4 159.652344 3.773438 162.5 3.488281 C 166.25 3.246094 169.648438 3.472656 173.296875 3.746094 Z M 173.296875 3.746094 "/>
<path style=" stroke:none;fill-rule:nonzero;fill:rgb(97.647059%,67.843137%,61.960784%);fill-opacity:1;" d="M 100.828125 51.035156 C 102.191406 51.160156 103.417969 51.335938 104.679688 51.527344 C 108.003906 51.992188 111.21875 52.347656 114.832031 52.605469 C 115.199219 52.632812 115.570312 52.660156 115.949219 52.6875 C 128.425781 53.566406 144.546875 54.414062 156.433594 52.671875 C 157.910156 52.417969 159.273438 52.140625 160.578125 51.820312 C 160.847656 53.382812 160.847656 53.382812 159.179688 54.046875 C 155.464844 55.117188 149.296875 55.347656 144.210938 55.394531 C 143.21875 55.394531 142.226562 55.394531 141.234375 55.394531 C 140.703125 55.394531 140.175781 55.394531 139.628906 55.390625 C 134.839844 55.375 130.261719 55.222656 125.570312 54.960938 C 125.15625 54.9375 124.742188 54.917969 124.316406 54.894531 C 116.90625 54.484375 109.535156 53.949219 103.035156 52.84375 C 102.132812 52.703125 102.132812 52.703125 100.625 52.746094 C 99.371094 52.847656 99.371094 52.847656 98.492188 53.128906 C 98.191406 53.464844 98.191406 53.464844 98.027344 53.78125 C 97.492188 53.660156 96.957031 53.53125 96.421875 53.40625 C 96.125 53.335938 95.828125 53.265625 95.519531 53.195312 C 94.289062 52.875 94.289062 52.722656 94.117188 52.238281 C 94.148438 51.800781 94.300781 51.683594 95.199219 51.296875 C 97.121094 50.945312 98.582031 50.957031 100.828125 51.035156 Z M 100.828125 51.035156 "/>
<path style=" stroke:none;fill-rule:nonzero;fill:rgb(35.686275%,40%,60.784314%);fill-opacity:1;" d="M 192.789062 9.421875 C 192.789062 10.027344 192.789062 10.632812 192.789062 11.253906 C 188.363281 11.820312 183.984375 12.359375 179.25 12.695312 C 178.941406 12.714844 178.628906 12.738281 178.308594 12.765625 C 174.816406 12.996094 171.328125 12.996094 167.757812 12.988281 C 166.710938 12.988281 165.664062 12.988281 164.617188 12.992188 C 159.136719 12.992188 154.046875 12.832031 148.851562 12.324219 C 148.3125 12.273438 148.3125 12.273438 147.765625 12.222656 C 145.066406 11.957031 142.550781 11.640625 140.039062 11.253906 C 140.039062 10.691406 140.039062 10.132812 140.039062 9.554688 C 143.144531 9.640625 146.089844 9.828125 149.113281 10.042969 C 149.605469 10.078125 150.101562 10.113281 150.609375 10.148438 C 153.1875 10.332031 155.730469 10.53125 158.261719 10.757812 C 166.125 11.460938 172.5 10.964844 180.183594 10.335938 C 180.699219 10.296875 181.210938 10.253906 181.742188 10.210938 C 184.785156 9.960938 184.785156 9.960938 187.824219 9.707031 C 188.496094 9.652344 188.496094 9.652344 189.175781 9.59375 C 189.570312 9.5625 189.964844 9.527344 190.371094 9.492188 C 191.386719 9.421875 191.386719 9.421875 192.789062 9.421875 Z M 192.789062 9.421875 "/>
<path style=" stroke:none;fill-rule:nonzero;fill:rgb(0%,28.235294%,69.803922%);fill-opacity:1;" d="M 193.253906 27.480469 C 195.53125 27.660156 197.378906 27.945312 199.320312 28.316406 C 199.625 28.371094 199.929688 28.429688 200.238281 28.488281 C 206.140625 29.628906 211.351562 30.972656 215.660156 32.585938 C 215.660156 35.175781 215.660156 37.765625 215.660156 40.4375 C 182.695312 40.4375 149.730469 40.4375 115.765625 40.4375 C 115.765625 40.390625 115.765625 40.347656 115.765625 40.304688 C 146.113281 40.304688 176.457031 40.304688 207.726562 40.304688 C 209.527344 33.113281 209.527344 33.113281 198.261719 29.371094 C 196.410156 28.90625 194.421875 28.507812 192.320312 28.132812 C 192.628906 27.917969 192.9375 27.703125 193.253906 27.480469 Z M 193.253906 27.480469 "/>
<path style=" stroke:none;fill-rule:nonzero;fill:rgb(0.392157%,0.784314%,1.568627%);fill-opacity:1;" d="M 28.007812 56.398438 C 30.097656 56.910156 31.511719 57.480469 31.875 58.257812 C 32.070312 59.15625 31.273438 59.851562 29.40625 60.585938 C 26.652344 61.324219 23.925781 61.433594 20.246094 61.425781 C 17.492188 61.332031 15.621094 60.953125 13.816406 60.378906 C 12.019531 59.675781 11.878906 58.9375 12.136719 58.101562 C 12.742188 57.179688 14.609375 56.671875 17.273438 56.140625 C 20.769531 55.574219 24.699219 55.871094 28.007812 56.398438 Z M 28.007812 56.398438 "/>
<path style=" stroke:none;fill-rule:nonzero;fill:rgb(96.470588%,75.686275%,17.254902%);fill-opacity:1;" d="M 183.453125 26.320312 C 184.824219 26.390625 185.988281 26.484375 187.1875 26.695312 C 186.507812 27.214844 185.621094 27.664062 184.578125 28.132812 C 184.414062 28.207031 184.253906 28.28125 184.089844 28.355469 C 183.574219 28.589844 183.0625 28.820312 182.546875 29.050781 C 182.035156 29.28125 181.523438 29.515625 181.011719 29.746094 C 180.546875 29.957031 180.078125 30.164062 179.613281 30.375 C 178.859375 30.71875 178.117188 31.0625 177.382812 31.40625 C 175.304688 31.351562 174.191406 30.949219 172.832031 30.546875 C 172.59375 30.480469 172.359375 30.410156 172.113281 30.339844 C 171.535156 30.171875 170.957031 30.003906 170.382812 29.835938 C 171.121094 29.320312 172.324219 29.007812 173.734375 28.625 C 175.3125 28.195312 176.847656 27.761719 178.289062 27.292969 C 178.542969 27.210938 178.796875 27.128906 179.058594 27.042969 C 179.601562 26.863281 180.117188 26.679688 180.621094 26.492188 C 181.757812 26.269531 182.109375 26.28125 183.453125 26.320312 Z M 183.453125 26.320312 "/>
<path style=" stroke:none;fill-rule:nonzero;fill:rgb(96.862745%,76.078431%,17.647059%);fill-opacity:1;" d="M 149.375 26.304688 C 150.402344 26.53125 151.253906 26.746094 152.15625 27.007812 C 152.410156 27.082031 152.667969 27.152344 152.929688 27.226562 C 153.46875 27.378906 154.003906 27.53125 154.535156 27.6875 C 155.355469 27.921875 156.183594 28.15625 157.011719 28.386719 C 157.53125 28.535156 158.054688 28.683594 158.574219 28.832031 C 158.820312 28.902344 159.070312 28.972656 159.324219 29.046875 C 161.046875 29.542969 161.046875 29.542969 161.046875 29.835938 C 160.308594 30.039062 160.308594 30.039062 159.324219 30.269531 C 157.800781 30.632812 156.367188 31.003906 154.976562 31.40625 C 153.320312 31.25 153.207031 31.164062 152.363281 30.753906 C 152.132812 30.644531 151.90625 30.539062 151.671875 30.425781 C 151.316406 30.25 151.316406 30.25 150.949219 30.074219 C 150.453125 29.835938 149.953125 29.59375 149.453125 29.355469 C 149.207031 29.238281 148.957031 29.121094 148.703125 29 C 147.515625 28.441406 146.246094 27.902344 144.941406 27.367188 C 144.523438 27.191406 144.144531 27.007812 143.773438 26.828125 C 144.242188 26.5625 144.242188 26.5625 145.523438 26.417969 C 147.007812 26.304688 147.867188 26.242188 149.375 26.304688 Z M 149.375 26.304688 "/>
<path style=" stroke:none;fill-rule:nonzero;fill:rgb(21.960784%,27.058824%,42.745098%);fill-opacity:1;" d="M 191.851562 13.21875 C 192.160156 13.21875 192.46875 13.21875 192.789062 13.21875 C 192.730469 13.519531 192.730469 13.519531 192.320312 13.871094 C 191.109375 14.082031 191.109375 14.082031 189.492188 14.265625 C 189.199219 14.296875 188.910156 14.328125 188.613281 14.363281 C 181.492188 15.140625 174.597656 15.625 166.910156 15.605469 C 166.398438 15.605469 165.886719 15.601562 165.359375 15.601562 C 161.804688 15.589844 158.457031 15.523438 154.976562 15.3125 C 154.5 15.285156 154.023438 15.261719 153.53125 15.238281 C 148.851562 14.980469 144.027344 14.484375 140.039062 13.742188 C 140.039062 13.609375 140.039062 13.480469 140.039062 13.347656 C 141.835938 13.429688 143.476562 13.578125 145.183594 13.75 C 159.984375 15.207031 176.914062 15.09375 191.386719 13.347656 C 191.539062 13.304688 191.695312 13.261719 191.851562 13.21875 Z M 191.851562 13.21875 "/>
<path style=" stroke:none;fill-rule:nonzero;fill:rgb(90.588235%,65.882353%,60.392157%);fill-opacity:1;" d="M 109.230469 19.757812 C 109.285156 20.722656 109.324219 21.6875 109.351562 22.648438 C 109.363281 23.097656 109.378906 23.546875 109.40625 23.992188 C 109.4375 24.507812 109.449219 25.019531 109.457031 25.535156 C 109.46875 25.695312 109.484375 25.855469 109.496094 26.023438 C 109.496094 26.171875 109.496094 26.320312 109.496094 26.476562 C 109.5 26.605469 109.503906 26.738281 109.511719 26.871094 C 109.117188 27.355469 108.351562 27.472656 106.898438 27.742188 C 105.617188 27.804688 105.617188 27.804688 104.207031 27.804688 C 103.667969 27.804688 103.132812 27.804688 102.578125 27.808594 C 101.992188 27.804688 101.40625 27.804688 100.804688 27.800781 C 100.179688 27.800781 99.550781 27.800781 98.925781 27.800781 C 97.230469 27.800781 95.535156 27.800781 93.839844 27.796875 C 92.066406 27.792969 90.292969 27.792969 88.519531 27.792969 C 85.164062 27.789062 81.808594 27.785156 78.453125 27.78125 C 74.632812 27.773438 70.8125 27.769531 66.988281 27.769531 C 59.128906 27.761719 51.269531 27.753906 43.414062 27.742188 C 43.414062 27.699219 43.414062 27.65625 43.414062 27.609375 C 74.375 27.546875 74.375 27.546875 105.960938 27.480469 C 106.117188 25.019531 106.269531 22.558594 106.429688 20.023438 C 99.960938 20.023438 93.488281 20.023438 86.824219 20.023438 C 86.824219 19.976562 86.824219 19.933594 86.824219 19.890625 C 89.941406 19.871094 93.054688 19.851562 96.171875 19.835938 C 97.234375 19.828125 98.292969 19.820312 99.355469 19.816406 C 100.875 19.804688 102.398438 19.796875 103.917969 19.789062 C 104.636719 19.785156 104.636719 19.785156 105.367188 19.78125 C 105.804688 19.777344 106.246094 19.773438 106.695312 19.773438 C 107.085938 19.769531 107.472656 19.765625 107.875 19.765625 C 108.328125 19.761719 108.777344 19.757812 109.230469 19.757812 Z M 109.230469 19.757812 "/>
<path style=" stroke:none;fill-rule:nonzero;fill:rgb(93.333333%,58.039216%,51.764706%);fill-opacity:1;" d="M 162.082031 25.632812 C 162.632812 25.632812 163.183594 25.628906 163.75 25.628906 C 164.605469 25.632812 164.605469 25.632812 165.480469 25.632812 C 166.050781 25.632812 166.621094 25.632812 167.210938 25.628906 C 167.761719 25.628906 168.3125 25.632812 168.878906 25.632812 C 169.378906 25.632812 169.878906 25.632812 170.394531 25.632812 C 171.6875 25.648438 172.859375 25.695312 174.117188 25.78125 C 173.105469 26.414062 171.445312 26.832031 169.710938 27.316406 C 169.390625 27.40625 169.074219 27.5 168.746094 27.59375 C 168.285156 27.722656 168.285156 27.722656 167.816406 27.855469 C 167.535156 27.933594 167.253906 28.011719 166.964844 28.09375 C 166.179688 28.265625 166.179688 28.265625 164.78125 28.265625 C 164.09375 28.082031 164.09375 28.082031 163.351562 27.824219 C 161.605469 27.238281 159.699219 26.707031 157.75 26.171875 C 156.84375 25.910156 156.84375 25.910156 156.84375 25.78125 C 158.617188 25.664062 160.261719 25.632812 162.082031 25.632812 Z M 162.082031 25.632812 "/>
<path style=" stroke:none;fill-rule:nonzero;fill:rgb(96.470588%,67.45098%,61.176471%);fill-opacity:1;" d="M 190.453125 16.09375 C 190.652344 18.089844 189.402344 19.820312 184.648438 21.378906 C 184.253906 21.492188 183.859375 21.605469 183.453125 21.722656 C 182.90625 21.277344 183.074219 21.042969 183.648438 20.605469 C 184.507812 19.859375 184.5625 19.175781 184.5 18.394531 C 184.5 18.265625 184.496094 18.136719 184.496094 18.003906 C 184.480469 17.300781 184.480469 17.300781 183.917969 16.617188 C 184.832031 16.53125 185.746094 16.445312 186.660156 16.359375 C 187.167969 16.308594 187.679688 16.261719 188.203125 16.210938 C 189.519531 16.09375 189.519531 16.09375 190.453125 16.09375 Z M 190.453125 16.09375 "/>
<path style=" stroke:none;fill-rule:nonzero;fill:rgb(27.058824%,31.372549%,49.803922%);fill-opacity:1;" d="M 192.789062 9.421875 C 192.789062 10.027344 192.789062 10.632812 192.789062 11.253906 C 191.796875 11.386719 190.804688 11.515625 189.8125 11.648438 C 189.257812 11.71875 188.707031 11.792969 188.136719 11.867188 C 186.71875 12.039062 186.71875 12.039062 185.785156 12.039062 C 185.785156 11.390625 185.785156 10.742188 185.785156 10.078125 C 185.476562 10.03125 185.167969 9.988281 184.851562 9.945312 C 185.910156 9.859375 186.972656 9.769531 188.03125 9.683594 C 188.621094 9.636719 189.210938 9.585938 189.820312 9.535156 C 191.386719 9.421875 191.386719 9.421875 192.789062 9.421875 Z M 192.789062 9.421875 "/>
<path style=" stroke:none;fill-rule:nonzero;fill:rgb(62.352941%,30.196078%,24.705882%);fill-opacity:1;" d="M 109.230469 14 C 110.007812 13.996094 110.785156 13.996094 111.5625 14 C 111.71875 14.046875 111.871094 14.089844 112.03125 14.132812 C 111.90625 14.484375 111.75 14.832031 111.5625 15.179688 C 111.519531 15.273438 111.472656 15.367188 111.421875 15.464844 C 111.277344 15.753906 111.117188 16.039062 110.953125 16.324219 C 110.902344 16.421875 110.855469 16.519531 110.804688 16.617188 C 110.453125 17.214844 110.070312 17.570312 108.296875 17.929688 C 107.679688 17.976562 107.058594 18.019531 106.429688 18.058594 C 106.554688 17.910156 106.675781 17.757812 106.804688 17.601562 C 107.78125 16.40625 108.648438 15.21875 109.230469 14 Z M 109.230469 14 "/>
<path style=" stroke:none;fill-rule:nonzero;fill:rgb(0%,36.862745%,81.960784%);fill-opacity:1;" d="M 22.464844 57.71875 C 24.472656 57.902344 24.472656 57.902344 25.207031 58.234375 C 25.402344 58.660156 25.335938 58.929688 24.742188 59.328125 C 23.476562 59.617188 22.542969 59.617188 20.949219 59.589844 C 20.070312 59.539062 20.070312 59.539062 19.140625 59.328125 C 18.527344 58.921875 18.410156 58.671875 18.671875 58.234375 C 19.925781 57.828125 20.539062 57.707031 22.464844 57.71875 Z M 22.464844 57.71875 "/>
<path style=" stroke:none;fill-rule:nonzero;fill:rgb(95.294118%,50.196078%,26.666667%);fill-opacity:1;" d="M 210.058594 15.046875 C 210.675781 15.046875 211.289062 15.046875 211.925781 15.046875 C 212.5 15.371094 212.445312 15.578125 212.4375 15.9375 C 212.4375 16.121094 212.4375 16.121094 212.433594 16.308594 C 212.429688 16.4375 212.425781 16.566406 212.421875 16.699219 C 212.417969 16.832031 212.417969 16.960938 212.414062 17.09375 C 212.410156 17.414062 212.402344 17.738281 212.390625 18.058594 C 211.3125 18.058594 210.234375 18.058594 209.125 18.058594 C 209.097656 17.628906 209.082031 17.203125 209.066406 16.773438 C 209.058594 16.652344 209.050781 16.53125 209.042969 16.40625 C 209.039062 16.289062 209.035156 16.171875 209.035156 16.050781 C 209.027344 15.945312 209.023438 15.835938 209.019531 15.726562 C 209.125 15.441406 209.125 15.441406 210.058594 15.046875 Z M 210.058594 15.046875 "/>
<path style=" stroke:none;fill-rule:nonzero;fill:rgb(89.803922%,27.058824%,27.058824%);fill-opacity:1;" d="M 70.019531 18.710938 C 73.410156 18.710938 76.796875 18.710938 80.289062 18.710938 C 80.289062 18.929688 80.289062 19.144531 80.289062 19.367188 C 76.898438 19.367188 73.511719 19.367188 70.019531 19.367188 C 70.019531 19.152344 70.019531 18.933594 70.019531 18.710938 Z M 70.019531 18.710938 "/>
<path style=" stroke:none;fill-rule:nonzero;fill:rgb(89.803922%,49.019608%,42.745098%);fill-opacity:1;" d="M 158.710938 26.304688 C 159.914062 26.464844 160.96875 26.636719 162.09375 26.84375 C 164.003906 27.152344 165.402344 27.148438 167.578125 27.085938 C 168.621094 26.957031 168.621094 26.957031 169.445312 26.828125 C 169.910156 26.871094 170.371094 26.914062 170.847656 26.957031 C 170.101562 27.175781 169.351562 27.394531 168.601562 27.609375 C 168.183594 27.734375 167.765625 27.855469 167.335938 27.980469 C 166.179688 28.265625 166.179688 28.265625 164.78125 28.265625 C 164.027344 28.070312 164.027344 28.070312 163.234375 27.800781 C 162.808594 27.65625 162.808594 27.65625 162.375 27.511719 C 162.089844 27.414062 161.804688 27.320312 161.511719 27.21875 C 160.976562 27.042969 160.441406 26.871094 159.90625 26.695312 C 159.511719 26.566406 159.117188 26.4375 158.710938 26.304688 Z M 158.710938 26.304688 "/>
<path style=" stroke:none;fill-rule:nonzero;fill:rgb(93.72549%,64.705882%,0%);fill-opacity:1;" d="M 210.789062 12.292969 C 211.351562 12.296875 211.351562 12.296875 211.925781 12.300781 C 212.21875 12.613281 212.21875 12.613281 212.390625 12.953125 C 212.085938 13.042969 211.777344 13.128906 211.460938 13.21875 C 210.234375 13.167969 210.234375 13.167969 209.125 13.085938 C 209.105469 12.867188 209.105469 12.648438 209.125 12.429688 C 209.59375 12.300781 209.59375 12.300781 210.789062 12.292969 Z M 210.789062 12.292969 "/>
<path style=" stroke:none;fill-rule:nonzero;fill:rgb(28.627451%,66.666667%,96.078431%);fill-opacity:1;" d="M 30.34375 60.328125 C 30.34375 60.851562 29.769531 61 28.476562 61.375 C 26.957031 61.542969 26.957031 61.542969 25.671875 61.632812 C 25.835938 61.257812 26.039062 61.136719 27.105469 60.886719 C 27.488281 60.820312 27.875 60.753906 28.269531 60.6875 C 28.65625 60.617188 29.042969 60.550781 29.4375 60.480469 C 29.738281 60.429688 30.035156 60.378906 30.34375 60.328125 Z M 30.34375 60.328125 "/>
<path style=" stroke:none;fill-rule:nonzero;fill:rgb(23.921569%,54.901961%,78.039216%);fill-opacity:1;" d="M 26.140625 61.375 C 25.988281 61.460938 25.832031 61.546875 25.671875 61.632812 C 23.824219 61.589844 21.976562 61.546875 20.070312 61.503906 C 20.070312 61.460938 20.070312 61.417969 20.070312 61.375 C 20.820312 61.347656 21.570312 61.324219 22.320312 61.300781 C 22.734375 61.285156 23.152344 61.273438 23.582031 61.257812 C 24.742188 61.242188 24.742188 61.242188 26.140625 61.375 Z M 26.140625 61.375 "/>
</g>
</svg>
